<mxfile host="app.diagrams.net" agent="Mozilla/5.0 (Windows NT 10.0; Win64; x64) AppleWebKit/537.36 (KHTML, like Gecko) Chrome/132.0.0.0 Safari/537.36" version="26.0.10">
  <diagram name="Page-1" id="onqAesVYjxltrzaPxitB">
    <mxGraphModel dx="1593" dy="867" grid="1" gridSize="10" guides="1" tooltips="1" connect="1" arrows="1" fold="1" page="1" pageScale="1" pageWidth="827" pageHeight="1169" math="0" shadow="0">
      <root>
        <mxCell id="0" />
        <mxCell id="1" parent="0" />
        <mxCell id="nmv-t9D0zuUFJgmQgeo_-1" value="bootloader" style="rounded=0;whiteSpace=wrap;html=1;" vertex="1" parent="1">
          <mxGeometry x="240" y="160" width="280" height="20" as="geometry" />
        </mxCell>
        <mxCell id="nmv-t9D0zuUFJgmQgeo_-2" value="partition table" style="rounded=0;whiteSpace=wrap;html=1;" vertex="1" parent="1">
          <mxGeometry x="240" y="180" width="280" height="20" as="geometry" />
        </mxCell>
        <mxCell id="nmv-t9D0zuUFJgmQgeo_-3" value="nvs" style="rounded=0;whiteSpace=wrap;html=1;" vertex="1" parent="1">
          <mxGeometry x="240" y="200" width="280" height="40" as="geometry" />
        </mxCell>
        <mxCell id="nmv-t9D0zuUFJgmQgeo_-4" value="0x9000" style="text;html=1;align=center;verticalAlign=middle;whiteSpace=wrap;rounded=0;" vertex="1" parent="1">
          <mxGeometry x="610" y="185" width="60" height="30" as="geometry" />
        </mxCell>
        <mxCell id="nmv-t9D0zuUFJgmQgeo_-5" value="" style="endArrow=none;dashed=1;html=1;rounded=0;entryX=1;entryY=0;entryDx=0;entryDy=0;exitX=0;exitY=0.5;exitDx=0;exitDy=0;" edge="1" parent="1" source="nmv-t9D0zuUFJgmQgeo_-4" target="nmv-t9D0zuUFJgmQgeo_-3">
          <mxGeometry width="50" height="50" relative="1" as="geometry">
            <mxPoint x="390" y="610" as="sourcePoint" />
            <mxPoint x="440" y="560" as="targetPoint" />
          </mxGeometry>
        </mxCell>
        <mxCell id="nmv-t9D0zuUFJgmQgeo_-6" value="0xF000" style="text;html=1;align=center;verticalAlign=middle;whiteSpace=wrap;rounded=0;" vertex="1" parent="1">
          <mxGeometry x="608" y="225" width="60" height="30" as="geometry" />
        </mxCell>
        <mxCell id="nmv-t9D0zuUFJgmQgeo_-7" value="" style="endArrow=none;dashed=1;html=1;rounded=0;entryX=1;entryY=0;entryDx=0;entryDy=0;exitX=0;exitY=0.5;exitDx=0;exitDy=0;" edge="1" parent="1" source="nmv-t9D0zuUFJgmQgeo_-6">
          <mxGeometry width="50" height="50" relative="1" as="geometry">
            <mxPoint x="388" y="650" as="sourcePoint" />
            <mxPoint x="518" y="240" as="targetPoint" />
          </mxGeometry>
        </mxCell>
        <mxCell id="nmv-t9D0zuUFJgmQgeo_-8" value="ota_data" style="rounded=0;whiteSpace=wrap;html=1;" vertex="1" parent="1">
          <mxGeometry x="240" y="240" width="280" height="40" as="geometry" />
        </mxCell>
        <mxCell id="nmv-t9D0zuUFJgmQgeo_-9" value="phy_init" style="rounded=0;whiteSpace=wrap;html=1;" vertex="1" parent="1">
          <mxGeometry x="240" y="280" width="280" height="40" as="geometry" />
        </mxCell>
        <mxCell id="nmv-t9D0zuUFJgmQgeo_-10" value="factory" style="rounded=0;whiteSpace=wrap;html=1;" vertex="1" parent="1">
          <mxGeometry x="240" y="320" width="280" height="120" as="geometry" />
        </mxCell>
        <mxCell id="nmv-t9D0zuUFJgmQgeo_-11" value="ota_0" style="rounded=0;whiteSpace=wrap;html=1;" vertex="1" parent="1">
          <mxGeometry x="240" y="440" width="280" height="120" as="geometry" />
        </mxCell>
        <mxCell id="nmv-t9D0zuUFJgmQgeo_-12" value="ota_1" style="rounded=0;whiteSpace=wrap;html=1;" vertex="1" parent="1">
          <mxGeometry x="240" y="560" width="280" height="120" as="geometry" />
        </mxCell>
        <mxCell id="nmv-t9D0zuUFJgmQgeo_-13" value="0x11000" style="text;html=1;align=center;verticalAlign=middle;whiteSpace=wrap;rounded=0;" vertex="1" parent="1">
          <mxGeometry x="607" y="265" width="60" height="30" as="geometry" />
        </mxCell>
        <mxCell id="nmv-t9D0zuUFJgmQgeo_-14" value="" style="endArrow=none;dashed=1;html=1;rounded=0;entryX=1;entryY=0;entryDx=0;entryDy=0;exitX=0;exitY=0.5;exitDx=0;exitDy=0;" edge="1" parent="1" source="nmv-t9D0zuUFJgmQgeo_-13">
          <mxGeometry width="50" height="50" relative="1" as="geometry">
            <mxPoint x="387" y="690" as="sourcePoint" />
            <mxPoint x="517" y="280" as="targetPoint" />
          </mxGeometry>
        </mxCell>
        <mxCell id="nmv-t9D0zuUFJgmQgeo_-15" value="" style="endArrow=classic;startArrow=classic;html=1;rounded=0;" edge="1" parent="1">
          <mxGeometry width="50" height="50" relative="1" as="geometry">
            <mxPoint x="690" y="240" as="sourcePoint" />
            <mxPoint x="690" y="200" as="targetPoint" />
          </mxGeometry>
        </mxCell>
        <mxCell id="nmv-t9D0zuUFJgmQgeo_-17" value="24kB" style="text;html=1;align=center;verticalAlign=middle;whiteSpace=wrap;rounded=0;" vertex="1" parent="1">
          <mxGeometry x="700" y="205" width="60" height="30" as="geometry" />
        </mxCell>
        <mxCell id="nmv-t9D0zuUFJgmQgeo_-19" value="" style="endArrow=classic;startArrow=classic;html=1;rounded=0;" edge="1" parent="1">
          <mxGeometry width="50" height="50" relative="1" as="geometry">
            <mxPoint x="690" y="280" as="sourcePoint" />
            <mxPoint x="690" y="240" as="targetPoint" />
          </mxGeometry>
        </mxCell>
        <mxCell id="nmv-t9D0zuUFJgmQgeo_-20" value="8kB" style="text;html=1;align=center;verticalAlign=middle;whiteSpace=wrap;rounded=0;" vertex="1" parent="1">
          <mxGeometry x="700" y="245" width="60" height="30" as="geometry" />
        </mxCell>
        <mxCell id="nmv-t9D0zuUFJgmQgeo_-21" value="0x12000" style="text;html=1;align=center;verticalAlign=middle;whiteSpace=wrap;rounded=0;" vertex="1" parent="1">
          <mxGeometry x="610" y="305" width="60" height="30" as="geometry" />
        </mxCell>
        <mxCell id="nmv-t9D0zuUFJgmQgeo_-22" value="" style="endArrow=none;dashed=1;html=1;rounded=0;entryX=1;entryY=0;entryDx=0;entryDy=0;exitX=0;exitY=0.5;exitDx=0;exitDy=0;" edge="1" parent="1" source="nmv-t9D0zuUFJgmQgeo_-21">
          <mxGeometry width="50" height="50" relative="1" as="geometry">
            <mxPoint x="390" y="730" as="sourcePoint" />
            <mxPoint x="520" y="320" as="targetPoint" />
          </mxGeometry>
        </mxCell>
        <mxCell id="nmv-t9D0zuUFJgmQgeo_-23" value="" style="endArrow=classic;startArrow=classic;html=1;rounded=0;" edge="1" parent="1">
          <mxGeometry width="50" height="50" relative="1" as="geometry">
            <mxPoint x="690" y="322" as="sourcePoint" />
            <mxPoint x="690" y="282" as="targetPoint" />
          </mxGeometry>
        </mxCell>
        <mxCell id="nmv-t9D0zuUFJgmQgeo_-24" value="4kB" style="text;html=1;align=center;verticalAlign=middle;whiteSpace=wrap;rounded=0;" vertex="1" parent="1">
          <mxGeometry x="698" y="285" width="60" height="30" as="geometry" />
        </mxCell>
        <mxCell id="nmv-t9D0zuUFJgmQgeo_-25" value="0x412000" style="text;html=1;align=center;verticalAlign=middle;whiteSpace=wrap;rounded=0;" vertex="1" parent="1">
          <mxGeometry x="609" y="425" width="60" height="30" as="geometry" />
        </mxCell>
        <mxCell id="nmv-t9D0zuUFJgmQgeo_-26" value="" style="endArrow=none;dashed=1;html=1;rounded=0;entryX=1;entryY=0;entryDx=0;entryDy=0;exitX=0;exitY=0.5;exitDx=0;exitDy=0;" edge="1" parent="1" source="nmv-t9D0zuUFJgmQgeo_-25">
          <mxGeometry width="50" height="50" relative="1" as="geometry">
            <mxPoint x="389" y="850" as="sourcePoint" />
            <mxPoint x="519" y="440" as="targetPoint" />
          </mxGeometry>
        </mxCell>
        <mxCell id="nmv-t9D0zuUFJgmQgeo_-27" value="" style="endArrow=classic;startArrow=classic;html=1;rounded=0;" edge="1" parent="1">
          <mxGeometry width="50" height="50" relative="1" as="geometry">
            <mxPoint x="689" y="442" as="sourcePoint" />
            <mxPoint x="690" y="320" as="targetPoint" />
          </mxGeometry>
        </mxCell>
        <mxCell id="nmv-t9D0zuUFJgmQgeo_-28" value="4MB" style="text;html=1;align=center;verticalAlign=middle;whiteSpace=wrap;rounded=0;" vertex="1" parent="1">
          <mxGeometry x="700" y="360" width="60" height="30" as="geometry" />
        </mxCell>
        <mxCell id="nmv-t9D0zuUFJgmQgeo_-29" value="unused" style="rounded=0;whiteSpace=wrap;html=1;" vertex="1" parent="1">
          <mxGeometry x="240" y="680" width="280" height="120" as="geometry" />
        </mxCell>
        <mxCell id="nmv-t9D0zuUFJgmQgeo_-30" value="0x812000" style="text;html=1;align=center;verticalAlign=middle;whiteSpace=wrap;rounded=0;" vertex="1" parent="1">
          <mxGeometry x="608" y="545" width="60" height="30" as="geometry" />
        </mxCell>
        <mxCell id="nmv-t9D0zuUFJgmQgeo_-31" value="" style="endArrow=none;dashed=1;html=1;rounded=0;entryX=1;entryY=0;entryDx=0;entryDy=0;exitX=0;exitY=0.5;exitDx=0;exitDy=0;" edge="1" parent="1" source="nmv-t9D0zuUFJgmQgeo_-30">
          <mxGeometry width="50" height="50" relative="1" as="geometry">
            <mxPoint x="388" y="970" as="sourcePoint" />
            <mxPoint x="518" y="560" as="targetPoint" />
          </mxGeometry>
        </mxCell>
        <mxCell id="nmv-t9D0zuUFJgmQgeo_-32" value="" style="endArrow=classic;startArrow=classic;html=1;rounded=0;" edge="1" parent="1">
          <mxGeometry width="50" height="50" relative="1" as="geometry">
            <mxPoint x="688" y="562" as="sourcePoint" />
            <mxPoint x="689" y="440" as="targetPoint" />
          </mxGeometry>
        </mxCell>
        <mxCell id="nmv-t9D0zuUFJgmQgeo_-33" value="0xC12000" style="text;html=1;align=center;verticalAlign=middle;whiteSpace=wrap;rounded=0;" vertex="1" parent="1">
          <mxGeometry x="608" y="665" width="60" height="30" as="geometry" />
        </mxCell>
        <mxCell id="nmv-t9D0zuUFJgmQgeo_-34" value="" style="endArrow=none;dashed=1;html=1;rounded=0;entryX=1;entryY=0;entryDx=0;entryDy=0;exitX=0;exitY=0.5;exitDx=0;exitDy=0;" edge="1" parent="1" source="nmv-t9D0zuUFJgmQgeo_-33">
          <mxGeometry width="50" height="50" relative="1" as="geometry">
            <mxPoint x="388" y="1090" as="sourcePoint" />
            <mxPoint x="518" y="680" as="targetPoint" />
          </mxGeometry>
        </mxCell>
        <mxCell id="nmv-t9D0zuUFJgmQgeo_-35" value="" style="endArrow=classic;startArrow=classic;html=1;rounded=0;" edge="1" parent="1">
          <mxGeometry width="50" height="50" relative="1" as="geometry">
            <mxPoint x="688" y="682" as="sourcePoint" />
            <mxPoint x="689" y="560" as="targetPoint" />
          </mxGeometry>
        </mxCell>
        <mxCell id="nmv-t9D0zuUFJgmQgeo_-37" value="0x1000000" style="text;html=1;align=center;verticalAlign=middle;whiteSpace=wrap;rounded=0;" vertex="1" parent="1">
          <mxGeometry x="610" y="785" width="60" height="30" as="geometry" />
        </mxCell>
        <mxCell id="nmv-t9D0zuUFJgmQgeo_-38" value="" style="endArrow=none;dashed=1;html=1;rounded=0;entryX=1;entryY=0;entryDx=0;entryDy=0;exitX=0;exitY=0.5;exitDx=0;exitDy=0;" edge="1" parent="1" source="nmv-t9D0zuUFJgmQgeo_-37">
          <mxGeometry width="50" height="50" relative="1" as="geometry">
            <mxPoint x="387" y="1210" as="sourcePoint" />
            <mxPoint x="517" y="800" as="targetPoint" />
          </mxGeometry>
        </mxCell>
        <mxCell id="nmv-t9D0zuUFJgmQgeo_-39" value="" style="endArrow=classic;startArrow=classic;html=1;rounded=0;" edge="1" parent="1">
          <mxGeometry width="50" height="50" relative="1" as="geometry">
            <mxPoint x="687" y="802" as="sourcePoint" />
            <mxPoint x="688" y="680" as="targetPoint" />
          </mxGeometry>
        </mxCell>
        <mxCell id="nmv-t9D0zuUFJgmQgeo_-40" value="4MB" style="text;html=1;align=center;verticalAlign=middle;whiteSpace=wrap;rounded=0;" vertex="1" parent="1">
          <mxGeometry x="698" y="490" width="60" height="30" as="geometry" />
        </mxCell>
        <mxCell id="nmv-t9D0zuUFJgmQgeo_-41" value="4MB" style="text;html=1;align=center;verticalAlign=middle;whiteSpace=wrap;rounded=0;" vertex="1" parent="1">
          <mxGeometry x="700" y="605" width="60" height="30" as="geometry" />
        </mxCell>
        <mxCell id="nmv-t9D0zuUFJgmQgeo_-42" value="4024kB" style="text;html=1;align=center;verticalAlign=middle;whiteSpace=wrap;rounded=0;" vertex="1" parent="1">
          <mxGeometry x="700" y="730" width="60" height="30" as="geometry" />
        </mxCell>
      </root>
    </mxGraphModel>
  </diagram>
</mxfile>
